<?xml version="1.0" encoding="utf-8"?>
<!-- Generator: Adobe Illustrator 19.0.0, SVG Export Plug-In . SVG Version: 6.00 Build 0)  -->
<svg version="1.1" xmlns="http://www.w3.org/2000/svg" xmlns:xlink="http://www.w3.org/1999/xlink" x="0px" y="0px"
	 viewBox="0 0 1000 1000" style="enable-background:new 0 0 1000 1000;" xml:space="preserve">
<style type="text/css">
	.st0{fill:#F2B770;stroke:#000000;stroke-width:2;stroke-linecap:round;stroke-linejoin:round;stroke-miterlimit:10;}
	.st1{fill:#679E4A;stroke:#000000;stroke-width:2;stroke-linecap:round;stroke-linejoin:round;stroke-miterlimit:10;}
	.st2{fill:#FFFFFF;stroke:#000000;stroke-width:2;stroke-linecap:round;stroke-linejoin:round;stroke-miterlimit:10;}
	.st3{fill:#6E93E5;stroke:#000000;stroke-width:2;stroke-linecap:round;stroke-linejoin:round;stroke-miterlimit:10;}
	.st4{fill:#F27E5F;stroke:#000000;stroke-width:2;stroke-linecap:round;stroke-linejoin:round;stroke-miterlimit:10;}
	.st5{fill:#FCFBED;stroke:#000000;stroke-width:2;stroke-linecap:round;stroke-linejoin:round;stroke-miterlimit:10;}
	.st6{fill:none;stroke:#000000;stroke-width:2;stroke-linecap:round;stroke-linejoin:round;stroke-miterlimit:10;}
	.st7{fill:none;stroke:#000000;stroke-width:3;stroke-linecap:round;stroke-linejoin:round;stroke-miterlimit:10;}
	.st8{fill:#D1CFBD;stroke:#000000;stroke-width:2;stroke-linecap:round;stroke-linejoin:round;stroke-miterlimit:10;}
</style>
<g id="Layer_1">
	<circle id="XMLID_1658_" class="st0" cx="502.3" cy="520.4" r="314.3"/>
	<g id="XMLID_970_">
		<path id="XMLID_1397_" class="st1" d="M502.3,834.6c87.9,0,167.3-36.1,224.4-94.3l1.3-1.3H276.7
			C333.9,798,413.8,834.6,502.3,834.6z"/>
	</g>
</g>
<g id="Layer_4">
	<g id="XMLID_55_">
		<path id="XMLID_56_" class="st2" d="M801.4,615.6c-1.3-0.1-2.5-0.1-3.8-0.1c-5.1,0-9.9,1.2-14.2,3.1c-6.8-6.4-15.9-10.3-25.9-10.3
			c-15.7,0-29.2,9.6-34.9,23.3c-8-7.5-18.8-12.1-30.7-12.1c-16.7,0-31.2,9.1-39,22.6c-7.7-5.5-17.1-8.7-27.2-8.7
			c-11.4,0-21.8,4-29.9,10.8c0-0.3,0-0.6,0-0.9c0-22.7-18.3-41-40.9-41c-10.4,0-19.8,3.9-27.1,10.3c-3.9-2.2-8.5-3.5-13.4-3.5
			c-11.6,0-21.4,7.2-25.4,17.4c-3.2-1.1-6.7-1.7-10.3-1.7c-4.8,0-9.3,1-13.4,2.9c-6.4-6-15-9.7-24.4-9.7c-14.8,0-27.5,9-32.9,21.9
			c-7.6-7.1-17.7-11.4-28.9-11.4c-15.7,0-29.4,8.6-36.8,21.3c-7.2-5.1-16.1-8.2-25.6-8.2c-10.7,0-20.5,3.8-28.2,10.1
			c0-0.3,0-0.6,0-0.9c0-21.4-17.3-38.7-38.5-38.7c-9.8,0-18.7,3.7-25.5,9.7c-3.7-2.1-8-3.3-12.6-3.3c-2.5,0-5.8,0.1-8.1,0.8
			c14.9,45.6,40.8,86.7,73.3,120.3l450.7-0.2C761.1,704.8,786.7,662.6,801.4,615.6z"/>
	</g>
</g>
<g id="Layer_23">
	<g id="XMLID_1_">
		<path id="XMLID_1666_" class="st3" d="M355.3,737.3l-2.6-1.9c-5.6-4-6.9-11.8-3-17.4l35.6-50.2l22.9,16.3l-35.6,50.2
			C368.7,740,360.9,741.3,355.3,737.3z"/>
		<path id="XMLID_1668_" class="st3" d="M648.5,737.3l2.6-1.9c5.6-4,6.9-11.8,3-17.4l-35.6-50.2l-22.9,16.3l35.6,50.2
			C635.1,740,642.9,741.3,648.5,737.3z"/>
		<circle id="XMLID_1657_" class="st4" cx="503.2" cy="529.2" r="188.8"/>
		<circle id="XMLID_1671_" class="st5" cx="503.2" cy="529.2" r="151.8"/>
		<line id="XMLID_1660_" class="st6" x1="501.6" y1="340.1" x2="501.6" y2="326.8"/>
		<circle id="XMLID_1665_" class="st1" cx="501.6" cy="313.5" r="13.3"/>
		<circle id="XMLID_1669_" cx="501.6" cy="397.6" r="5.3"/>
		<circle id="XMLID_1675_" cx="435.7" cy="415.2" r="5.3"/>
		<circle id="XMLID_1676_" cx="387.5" cy="463.3" r="5.3"/>
		<circle id="XMLID_1677_" cx="369.7" cy="529.1" r="5.3"/>
		<circle id="XMLID_1678_" cx="387.3" cy="595" r="5.3"/>
		<circle id="XMLID_1679_" cx="435.4" cy="643.2" r="5.3"/>
		<circle id="XMLID_1680_" cx="501.2" cy="660.9" r="5.3"/>
		<circle id="XMLID_1681_" cx="567.1" cy="643.4" r="5.3"/>
		<circle id="XMLID_1682_" cx="615.3" cy="595.2" r="5.3"/>
		<circle id="XMLID_1683_" cx="633.1" cy="529.4" r="5.3"/>
		<circle id="XMLID_1684_" cx="615.5" cy="463.6" r="5.3"/>
		<circle id="XMLID_1686_" cx="567.4" cy="415.3" r="5.3"/>
		
			<ellipse id="XMLID_1687_" transform="matrix(-0.6682 0.744 -0.744 -0.6682 937.434 422.9634)" class="st2" cx="374.4" cy="420.5" rx="19.6" ry="7.6"/>
		<circle id="XMLID_1672_" class="st1" cx="503.2" cy="529.2" r="43"/>
		<line id="XMLID_1667_" class="st7" x1="374.4" y1="391" x2="308.8" y2="327.6"/>
		<line id="XMLID_1670_" class="st7" x1="632.9" y1="392" x2="698.5" y2="328.6"/>
	</g>
</g>
<g id="Layer_8">
	<path id="XMLID_29_" class="st8" d="M449.5,427.9c-3.2,2.2-4,6.5-2.3,9.9l38.2,74.2c0.9,1.7,2.7,2.8,4.7,3.3
		c1.9,0.5,3.6,1.7,4.5,3.5l5.8,11.2c0.6,1.2,2.2,1.7,3.4,1.1l0,0c1.2-0.6,1.7-2.2,1.1-3.4l-5.1-9.9c-1.1-2.1-1.4-4.6-0.6-6.9
		c0.6-1.9,0.7-4-0.2-5.8l-38.4-74.4C458.5,426.6,453.3,425.2,449.5,427.9z"/>
</g>
<g id="Layer_9">
	<path id="XMLID_972_" class="st8" d="M592.7,557c0.7-3.8-1.8-7.5-5.4-8.6l-60.1-19.2c-1.9-0.6-3.9-0.1-5.6,1
		c-1.7,1-3.8,1.4-5.7,0.7l-12-3.8c-1.3-0.4-2.8,0.3-3.2,1.6l0,0c-0.4,1.3,0.3,2.8,1.6,3.2l10.6,3.4c2.3,0.7,4.3,2.3,5.3,4.4
		c0.9,1.8,2.3,3.3,4.3,4l60.4,19.3C587.2,564.3,591.8,561.6,592.7,557z"/>
</g>
<g id="Layer_10">
	<circle id="XMLID_27_" class="st0" cx="503.2" cy="529.2" r="10.2"/>
</g>
<g id="Layer_11">
	<circle id="XMLID_1699_" class="st2" cx="734.8" cy="583.4" r="5.5"/>
</g>
<g id="Layer_6">
	<circle id="XMLID_25_" class="st2" cx="197.4" cy="579.6" r="18.8"/>
</g>
<g id="Layer_12">
	<circle id="XMLID_1851_" class="st2" cx="763.8" cy="622.4" r="5.5"/>
</g>
<g id="Layer_13">
	<path id="XMLID_23_" class="st2" d="M791.9,597.5c3-1.5,5.4-3.7,7.1-6.4c6.9,5.4,16.5,6.7,24.9,2.6c11.8-5.7,16.7-19.9,10.9-31.7
		c-5.7-11.8-19.9-16.7-31.7-10.9c-6.3,3.1-10.6,8.6-12.4,14.8c-4.4-1.7-9.4-1.7-14,0.5c-8.6,4.2-12.2,14.5-8,23.1
		C772.9,598.1,783.3,601.7,791.9,597.5z"/>
</g>
<g id="Layer_14">
	<circle id="XMLID_1835_" class="st2" cx="764" cy="544.5" r="8.7"/>
</g>
<g id="Layer_15">
	<circle id="XMLID_21_" class="st2" cx="233.7" cy="593.8" r="8.3"/>
</g>
<g id="Layer_16">
	<circle id="XMLID_1685_" class="st2" cx="304.6" cy="608" r="6.1"/>
</g>
<g id="Layer_17">
	<polyline id="XMLID_17_" class="st6" points="553.8,313.2 531.1,290.5 559.7,291.8 559.8,260 582.3,284.6 597.7,264.6 601.9,288.6 
		620,284.4 	"/>
</g>
<g id="Layer_18">
	<polyline id="XMLID_1844_" class="st6" points="712,470.8 727.6,493.9 733.5,465.3 762.8,466.7 738,445.6 758.8,428.3 734.4,421.9 
		737.3,406.3 	"/>
</g>
<g id="Layer_19">
	<polyline id="XMLID_13_" class="st6" points="451.2,311.6 469.3,288.3 442.7,290.8 440,259.8 420.7,283.8 405.7,264.4 401.7,287.7 
		384,283.5 	"/>
</g>
<g id="Layer_20">
	<polyline id="XMLID_1674_" class="st6" points="288.1,470.1 269.9,491.9 268.6,465.1 239.9,465.2 265.1,445.6 245.5,427.8 
		272.7,424.6 267.6,407.3 	"/>
</g>
<g id="Layer_21">
	<g id="XMLID_7_">
		<path id="XMLID_9_" class="st3" d="M689.2,338.2c-31.6-32.9-77.6-43.8-118.7-32.1l146.1,152C730,417.4,720.9,371.1,689.2,338.2z"
			/>
	</g>
</g>
<g id="Layer_22">
	<g id="XMLID_1662_">
		<path id="XMLID_1663_" class="st3" d="M317.6,336.2c-31.9,32.7-41.4,78.9-28.4,119.6L436.6,305C395.6,293,349.6,303.5,317.6,336.2
			z"/>
	</g>
</g>
</svg>
